<?xml version="1.0" standalone="no"?>
<!DOCTYPE svg PUBLIC "-//W3C//DTD SVG 20010904//EN"
 "http://www.w3.org/TR/2001/REC-SVG-20010904/DTD/svg10.dtd">
<svg version="1.0" xmlns="http://www.w3.org/2000/svg"
 width="1142.000000pt" height="1142.000000pt" viewBox="0 0 1142.000000 1142.000000"
 preserveAspectRatio="xMidYMid meet">
<metadata>
Created by potrace 1.14, written by Peter Selinger 2001-2017
</metadata>
<g transform="translate(0.000000,1142.000000) scale(0.100000,-0.100000)"
fill="#000000" stroke="none">
<path d="M3137 11394 c-1 -1 -42 -4 -90 -8 -48 -4 -93 -9 -100 -11 -7 -2 -25
-6 -42 -8 -164 -25 -399 -114 -527 -200 -224 -151 -402 -381 -591 -762 -70
-140 -109 -205 -150 -248 -109 -115 -191 -49 -190 153 1 170 88 511 188 737
30 67 34 108 13 129 -31 31 -106 44 -227 40 -406 -14 -914 -258 -1137 -548
-24 -31 -44 -60 -44 -63 0 -4 -8 -19 -18 -33 -82 -120 -124 -398 -86 -563 29
-127 125 -284 229 -376 l46 -41 71 44 c231 142 537 170 710 64 26 -16 59 -39
73 -52 37 -32 111 -136 135 -191 l21 -46 97 49 c224 113 360 154 502 153 77 0
108 -5 163 -26 129 -50 238 -142 308 -262 29 -49 71 -143 75 -165 0 -3 6 -31
13 -62 l12 -56 57 3 c31 2 107 6 167 10 189 11 240 17 580 64 116 16 239 33
275 36 36 4 76 8 90 10 14 2 59 7 100 10 41 4 77 8 80 10 3 2 52 6 110 10 58
3 116 8 130 10 14 2 68 6 120 10 52 3 115 8 140 10 25 2 92 7 150 10 58 3 139
8 180 11 75 4 219 10 490 19 174 6 794 6 935 1 141 -6 354 -17 395 -21 19 -2
76 -6 125 -10 50 -4 112 -11 139 -15 54 -8 160 -6 216 5 93 17 270 92 270 114
0 4 -28 16 -62 26 -345 102 -555 399 -556 785 0 177 52 334 160 482 84 114
232 235 353 289 l48 21 -72 34 c-123 58 -292 113 -396 129 -71 11 -199 6 -258
-10 -184 -48 -372 -216 -526 -468 -97 -160 -150 -277 -217 -484 -65 -200 -119
-273 -202 -273 -89 0 -139 145 -109 315 25 137 100 364 211 632 110 266 124
311 123 375 -2 64 -24 101 -75 131 -103 61 -575 81 -921 41 -156 -18 -339 -94
-474 -195 -209 -158 -418 -411 -525 -639 -39 -81 -82 -198 -82 -221 0 -28 -72
-161 -104 -192 -100 -98 -201 -19 -205 160 -4 154 46 332 201 728 50 127 93
247 95 267 8 52 -26 83 -98 93 -30 4 -62 9 -72 11 -63 11 -429 27 -440 18z"/>
<path d="M9225 11342 c-118 -21 -209 -58 -282 -115 -23 -17 -78 -60 -122 -94
-83 -64 -128 -83 -195 -83 -53 0 -104 28 -216 116 -106 83 -213 141 -278 150
-24 3 -50 7 -59 8 -44 7 -145 -18 -218 -54 -163 -80 -225 -178 -260 -410 -11
-72 -29 -122 -49 -135 -12 -7 -45 -18 -75 -24 -188 -39 -371 -202 -436 -388
-16 -44 -23 -90 -24 -152 -5 -217 86 -394 247 -479 58 -31 207 -77 273 -85 20
-3 42 -7 47 -11 12 -7 140 -179 160 -214 82 -145 137 -283 178 -444 22 -86 27
-131 29 -268 2 -91 0 -196 -5 -235 -5 -38 -12 -92 -16 -120 -6 -52 -37 -203
-54 -265 -5 -19 -16 -60 -24 -90 -47 -174 -106 -325 -215 -550 -31 -66 -57
-133 -59 -157 -9 -100 108 -260 271 -371 55 -38 103 -60 165 -77 44 -11 53
-11 63 1 6 8 9 14 6 14 -11 0 54 174 74 199 10 13 19 28 19 33 0 15 75 111
121 154 143 133 285 184 494 179 152 -4 221 -15 580 -89 94 -20 181 -36 195
-36 l25 0 0 152 c0 172 5 212 34 289 11 29 19 54 17 56 -2 2 -93 -19 -203 -46
-110 -28 -206 -51 -215 -51 -8 0 -23 9 -33 20 -47 52 32 243 182 440 48 63
138 186 200 274 l113 158 34 -37 c40 -43 74 -141 81 -233 9 -112 61 -178 147
-187 24 -2 76 4 119 15 191 49 345 47 534 -6 213 -59 412 -200 569 -402 l49
-62 29 42 c139 205 161 473 57 679 -26 53 -89 138 -147 199 -13 14 -35 44 -48
67 -37 62 -27 92 54 167 240 225 320 598 196 915 -15 36 -33 73 -40 82 -8 8
-14 19 -14 23 0 4 -14 27 -30 52 -82 118 -91 176 -45 287 73 173 95 268 99
417 6 201 -58 373 -184 499 -88 88 -208 157 -309 176 -94 18 -157 25 -241 26
-66 0 -95 -2 -175 -16 -89 -14 -213 -72 -325 -151 -61 -44 -67 -46 -117 -41
-72 7 -131 36 -226 110 -147 113 -222 154 -312 172 -36 8 -182 13 -210 7z
m-1032 -1652 c35 -21 113 -125 157 -210 70 -135 154 -226 288 -313 74 -48 74
-39 5 -197 -54 -121 -79 -164 -119 -202 -61 -57 -118 -31 -170 77 -20 41 -71
224 -88 315 -2 14 -10 48 -16 75 -6 28 -14 60 -16 73 -2 12 -14 62 -25 110
-24 101 -28 118 -35 152 -3 14 -10 43 -16 65 -22 86 -21 88 35 55z m1094 -611
c15 -6 39 -20 52 -32 28 -27 81 -129 81 -157 0 -17 -87 -151 -152 -235 -150
-195 -314 -377 -360 -401 -51 -26 -64 -6 -60 97 1 20 15 76 31 125 36 111 215
581 224 590 20 20 142 29 184 13z"/>
<path d="M812 9464 c-213 -44 -391 -218 -460 -449 -19 -61 -25 -109 -27 -200
-4 -153 12 -249 63 -375 92 -227 252 -392 442 -456 84 -28 274 -25 354 6 71
27 122 77 137 133 11 40 7 177 -6 237 -13 62 -7 130 19 185 23 50 31 58 82 82
49 22 70 26 163 26 58 0 147 -3 196 -7 193 -18 330 -9 394 24 91 46 142 156
136 295 -8 208 -134 363 -295 364 -103 1 -289 -76 -566 -235 -61 -35 -125 -67
-142 -70 -49 -10 -79 15 -88 73 -16 111 -77 264 -128 321 -50 56 -148 73 -274
46z"/>
<path d="M5327 9043 c-1 -1 -101 -4 -222 -8 -282 -8 -412 -14 -450 -21 -168
-31 -199 -58 -230 -200 -20 -90 -41 -120 -78 -110 -31 7 -40 31 -42 111 -5
114 -25 137 -116 131 -182 -14 -634 -120 -779 -183 -263 -115 -352 -191 -367
-311 -13 -116 51 -217 178 -279 61 -30 207 -77 273 -88 17 -3 38 -8 46 -10 8
-2 38 -6 65 -10 28 -3 57 -8 65 -10 8 -3 35 -7 60 -9 25 -3 56 -8 70 -11 14
-3 48 -7 75 -10 28 -3 61 -7 75 -10 14 -2 43 -7 65 -10 102 -13 212 -29 325
-46 36 -6 79 -12 95 -14 17 -2 44 -5 60 -8 17 -3 50 -9 75 -12 25 -4 52 -9 60
-10 8 -2 58 -10 110 -19 52 -9 104 -18 115 -20 11 -2 61 -12 110 -21 50 -9 97
-18 105 -20 63 -12 159 -15 183 -6 83 32 162 174 183 331 9 70 32 87 71 53 32
-29 43 -87 29 -158 -19 -95 -28 -183 -24 -227 9 -85 15 -88 293 -149 50 -11
99 -22 110 -25 11 -3 31 -7 44 -10 61 -13 247 -61 461 -121 129 -36 273 -76
320 -88 347 -92 667 102 785 476 65 208 52 427 -37 603 -118 233 -339 377
-653 425 -81 12 -123 7 -147 -17 -10 -10 -34 -55 -53 -101 -68 -164 -166 -311
-208 -311 -22 0 -21 43 2 134 37 140 23 270 -33 320 -53 47 -105 55 -476 72
-145 6 -589 12 -593 7z"/>
<path d="M2395 8480 c-40 -41 -154 -97 -235 -114 -68 -15 -312 -18 -428 -7
-35 4 -65 4 -68 0 -2 -4 -6 -42 -9 -85 -15 -206 -83 -400 -182 -521 -83 -103
-198 -200 -368 -313 -60 -40 -122 -81 -137 -91 -15 -11 -30 -19 -33 -19 -3 0
-31 -16 -61 -35 -30 -19 -56 -35 -58 -35 -2 0 -41 -21 -87 -46 -155 -86 -500
-254 -521 -254 -20 0 1 -27 58 -73 215 -175 524 -278 843 -280 282 -2 520 44
826 158 176 66 446 198 582 285 l48 30 295 -5 c162 -2 318 -7 345 -10 137 -16
314 -36 345 -41 636 -94 1225 -292 1718 -578 68 -39 131 -75 140 -81 31 -18
266 -183 287 -202 12 -10 41 -34 65 -53 153 -118 345 -317 513 -530 124 -158
278 -440 365 -670 53 -139 126 -373 148 -471 2 -10 6 -27 8 -37 2 -9 11 -46
19 -82 21 -88 55 -281 63 -355 3 -33 8 -68 10 -78 24 -130 24 -696 -1 -827 -1
-8 -6 -42 -9 -75 -22 -198 -85 -474 -163 -710 -183 -561 -480 -1085 -898
-1584 -103 -123 -126 -169 -126 -250 -1 -170 149 -294 353 -292 187 2 643 180
993 389 57 34 309 197 330 214 6 4 35 26 65 47 30 22 60 44 65 48 6 5 26 20
45 33 19 14 44 32 55 41 11 9 89 72 173 139 294 233 431 385 537 599 91 183
128 396 91 523 -53 179 -242 289 -486 283 -58 -2 -136 -10 -175 -18 -71 -16
-192 -61 -209 -78 -6 -5 -14 -9 -19 -9 -15 0 72 77 133 117 148 100 308 146
473 138 93 -5 110 -8 181 -31 116 -38 224 -123 267 -211 l22 -45 19 48 c73
188 182 557 202 684 3 19 10 58 15 87 6 29 13 74 16 100 4 26 8 59 11 73 2 14
6 50 9 80 3 30 8 75 11 100 3 25 7 120 9 213 l4 167 -38 0 c-104 0 -243 -64
-339 -156 l-24 -23 -63 44 c-84 57 -174 99 -260 120 -132 33 -296 2 -402 -74
-62 -45 -62 -44 -58 -9 7 53 46 119 103 175 177 172 450 174 616 5 l44 -44 26
41 c48 75 180 141 296 148 73 5 93 9 87 20 -3 5 -8 42 -11 83 -14 155 -67 412
-121 590 -14 47 -27 90 -29 95 -2 6 -8 23 -14 38 -7 16 -12 31 -12 35 0 4 -10
30 -22 59 -14 34 -28 53 -38 53 -72 0 -223 -89 -293 -173 l-38 -46 -67 34
c-94 47 -194 75 -282 78 -85 4 -131 -4 -210 -35 -48 -20 -160 -99 -168 -120
-2 -4 -8 -8 -14 -8 -6 0 -8 18 -6 43 17 167 214 328 401 328 34 0 74 -3 88 -6
45 -9 132 -51 174 -85 l40 -31 7 29 c18 68 122 149 250 194 l38 14 -30 57
c-93 179 -201 348 -338 527 -92 120 -112 144 -196 237 l-38 42 -37 -21 c-39
-23 -118 -113 -145 -166 -14 -27 -20 -31 -35 -23 -48 26 -167 43 -256 38 -145
-9 -250 -61 -323 -158 -41 -56 -52 -49 -45 30 9 103 100 224 207 276 100 49
208 48 316 -2 l45 -21 15 46 c9 29 32 65 62 96 26 27 45 53 42 58 -9 13 -90
88 -179 164 -142 120 -384 294 -528 377 l-47 28 -30 -63 c-17 -35 -33 -77 -36
-95 l-6 -32 -87 0 c-47 0 -95 -2 -106 -4 -11 -3 -33 -8 -50 -12 -93 -23 -189
-98 -238 -183 l-30 -54 -15 34 c-52 117 27 297 157 356 45 21 71 26 136 26
l80 0 1 40 c1 23 4 55 8 72 l8 30 -132 63 c-252 119 -648 264 -865 317 -5 1
-82 20 -171 42 -88 22 -173 42 -190 45 -16 3 -76 15 -134 26 -147 28 -351 59
-505 76 -33 4 -71 8 -84 10 -12 2 -60 7 -105 10 -44 4 -94 8 -111 10 -236 27
-1070 27 -1400 0 -27 -2 -81 -7 -120 -10 -38 -3 -97 -8 -130 -11 -33 -2 -70
-7 -83 -9 -28 -7 -36 11 -56 130 -17 104 -17 104 -45 211 -49 192 -177 496
-243 577 l-23 28 -30 -31z m4995 -6795 c55 -28 92 -100 84 -163 -17 -137 -173
-195 -278 -103 -73 64 -62 200 22 260 46 33 116 35 172 6z"/>
<path d="M256 7893 c-29 -8 -97 -52 -119 -77 -32 -36 -58 -105 -61 -159 -12
-213 236 -342 408 -211 144 110 123 343 -39 426 -40 21 -149 33 -189 21z"/>
<path d="M10176 7834 c-124 -29 -217 -99 -273 -206 -28 -52 -28 -56 -30 -243
-2 -224 -6 -254 -39 -314 -68 -126 -192 -136 -599 -52 -297 61 -331 66 -480
66 -118 0 -121 -1 -183 -34 -151 -82 -244 -275 -236 -491 4 -93 5 -103 27
-176 51 -173 183 -304 349 -347 169 -44 541 18 893 148 253 93 304 104 324 68
5 -10 12 -72 15 -138 3 -66 8 -131 11 -145 46 -240 134 -342 331 -383 86 -18
230 -14 304 8 246 75 448 288 554 585 149 415 89 892 -160 1270 -50 76 -180
216 -244 262 -158 113 -386 163 -564 122z"/>
<path d="M2839 6686 c-2 -2 -42 -7 -89 -11 -142 -12 -167 -16 -250 -30 -14 -3
-41 -7 -60 -10 -19 -3 -84 -17 -145 -31 -60 -14 -119 -27 -129 -29 -49 -11
-210 -61 -291 -91 -226 -82 -398 -163 -585 -272 -85 -49 -297 -188 -310 -202
-3 -3 -43 -35 -90 -71 -161 -125 -244 -230 -289 -366 -48 -142 -48 -296 -2
-428 l18 -52 -56 -17 c-306 -94 -324 -103 -337 -172 -14 -73 -6 -83 265 -334
62 -57 122 -111 133 -118 46 -32 132 -11 162 39 10 17 31 90 47 161 16 72 31
133 33 135 2 3 23 -8 46 -22 94 -60 222 -95 356 -100 106 -4 205 13 301 51 84
34 116 54 239 149 201 157 404 266 644 344 105 35 297 76 405 88 135 15 466 8
561 -12 12 -3 39 -7 60 -11 66 -10 255 -61 334 -89 113 -40 344 -156 440 -220
194 -131 340 -268 514 -486 36 -44 143 -226 186 -314 53 -110 122 -307 140
-400 36 -193 44 -261 43 -405 -1 -222 -27 -382 -94 -585 -137 -413 -406 -759
-784 -1008 -198 -130 -500 -254 -710 -291 -16 -3 -41 -8 -55 -11 -171 -34
-514 -39 -675 -10 -16 3 -41 8 -54 10 -219 38 -424 108 -621 212 -93 48 -244
145 -303 192 -60 48 -190 167 -247 226 -111 115 -260 200 -387 221 -15 2 -39
7 -53 10 -31 7 -165 6 -213 -1 -31 -5 -132 -33 -188 -51 -16 -5 -15 -8 -66
220 -25 113 -74 157 -156 142 -36 -7 -40 -10 -197 -156 -248 -231 -249 -231
-237 -307 10 -61 38 -79 195 -129 l143 -45 -15 -24 c-16 -25 -55 -117 -61
-145 -2 -8 -8 -35 -13 -59 -15 -62 -12 -198 4 -272 17 -73 73 -194 118 -256
44 -58 253 -265 367 -361 436 -369 1027 -653 1574 -757 52 -10 149 -26 180
-30 17 -3 62 -9 100 -14 219 -31 708 -34 865 -6 14 2 45 7 70 10 39 5 208 34
294 50 65 13 291 78 398 114 333 115 660 288 944 501 180 135 426 365 544 510
25 30 50 59 56 65 27 25 161 214 228 323 147 236 260 479 340 732 39 125 51
169 71 260 20 92 45 227 50 275 4 33 9 69 11 80 2 11 7 72 11 135 15 251 4
508 -31 715 -20 120 -24 142 -36 195 -6 25 -13 55 -15 68 -9 39 -13 55 -44
157 -122 405 -312 769 -572 1096 -108 135 -131 161 -274 304 -370 370 -822
653 -1320 825 -100 34 -297 91 -363 105 -9 2 -39 9 -67 15 -52 12 -134 27
-195 36 -19 2 -46 7 -60 9 -14 3 -47 7 -75 10 -27 3 -66 8 -85 11 -39 6 -586
15 -591 10z"/>
<path d="M475 6457 c-51 -20 -85 -48 -110 -91 -47 -82 -39 -174 22 -246 118
-137 339 -74 367 105 25 156 -134 288 -279 232z"/>
<path d="M120 5802 c-46 -25 -79 -83 -75 -132 6 -68 44 -111 113 -128 111 -27
205 106 146 207 -35 60 -123 85 -184 53z"/>
<path d="M9005 5722 c-49 -24 -73 -49 -91 -99 -19 -54 -17 -90 7 -141 31 -63
86 -97 159 -96 68 1 109 23 147 77 55 79 25 210 -57 252 -50 26 -119 29 -165
7z"/>
<path d="M9698 5673 c-126 -135 -259 -406 -328 -666 -35 -133 -32 -118 -58
-252 -19 -95 -25 -133 -37 -242 -3 -27 -8 -64 -10 -83 -15 -115 -25 -316 -30
-584 -3 -131 -7 -266 -10 -300 -3 -33 -7 -90 -10 -126 -3 -36 -8 -81 -10 -100
-3 -19 -7 -55 -10 -80 -17 -145 -59 -342 -109 -515 -74 -259 -163 -457 -375
-838 -213 -384 -284 -549 -331 -767 -15 -70 -22 -244 -11 -291 14 -61 -45
-157 -169 -278 -89 -88 -250 -197 -348 -237 -1 -1 -5 -11 -7 -24 -3 -17 9 -35
48 -74 48 -46 169 -136 183 -136 3 0 29 20 58 45 146 124 392 255 531 283 30
6 49 6 235 1 128 -4 208 5 314 36 167 48 330 150 493 305 438 420 812 1175
1216 2455 29 90 115 409 123 452 3 15 14 66 24 113 10 47 22 101 25 120 3 19
8 42 10 50 2 8 7 35 10 60 3 25 10 70 15 100 5 30 12 78 15 105 4 28 8 61 11
75 23 132 23 692 0 729 -2 3 -7 31 -10 61 -14 132 -115 438 -140 423 -6 -4
-33 -22 -60 -41 -260 -181 -613 -218 -885 -91 -76 35 -156 90 -193 133 -14 17
-37 44 -51 60 -14 15 -38 55 -53 87 -16 32 -32 59 -35 59 -3 0 -17 -12 -31
-27z"/>
<path d="M2928 4795 c-2 -1 -57 -5 -123 -9 -133 -7 -142 -8 -300 -37 -219 -40
-417 -107 -640 -213 -256 -123 -464 -265 -629 -429 -167 -166 -236 -299 -190
-365 44 -63 122 -64 270 -4 55 22 176 71 269 110 270 110 451 152 655 154 181
1 288 -20 406 -78 105 -52 174 -127 230 -248 135 -295 -30 -666 -333 -748
-103 -28 -316 -30 -448 -4 -212 41 -363 104 -685 284 -222 124 -282 144 -348
117 -68 -29 -77 -95 -27 -202 147 -319 631 -711 1122 -908 171 -69 408 -134
549 -150 32 -4 61 -9 64 -10 7 -4 230 -18 290 -18 60 0 246 12 290 19 327 49
595 154 810 317 374 284 551 789 459 1312 -26 148 -105 335 -197 465 -67 96
-224 248 -330 319 -99 66 -289 167 -332 175 -3 1 -9 4 -15 8 -12 7 -193 65
-226 72 -254 54 -261 55 -424 62 -71 3 -138 7 -147 8 -9 2 -18 3 -20 1z"/>
<path d="M215 4053 c-122 -62 -177 -148 -176 -273 1 -64 35 -143 84 -191 106
-107 290 -105 396 2 138 139 98 369 -78 456 -48 24 -184 28 -226 6z"/>
<path d="M571 3219 c-107 -23 -151 -139 -85 -226 41 -55 129 -67 191 -26 28
19 63 86 58 112 -2 9 -4 25 -4 36 -1 30 -50 83 -91 98 -22 9 -47 11 -69 6z"/>
<path d="M11221 3059 c-32 -13 -75 -59 -99 -106 -18 -35 -111 -274 -116 -298
-1 -5 -28 -88 -60 -184 -32 -96 -59 -181 -61 -190 -11 -53 -162 -489 -209
-604 -52 -127 -133 -293 -201 -412 -29 -52 -155 -246 -165 -255 -3 -3 -25 -32
-49 -65 -138 -187 -377 -424 -626 -619 -132 -103 -183 -197 -137 -252 34 -42
74 -48 272 -44 173 3 611 2 1060 -3 233 -2 317 6 386 37 61 28 96 64 127 131
64 135 76 267 70 735 -5 382 -5 504 -3 1360 1 267 -1 496 -5 510 -3 14 -7 41
-10 60 -12 92 -61 183 -107 199 -36 13 -35 13 -67 0z m10 -1110 c25 -13 38
-32 44 -68 5 -28 0 -38 -29 -67 -31 -31 -40 -35 -73 -29 -77 12 -113 63 -87
124 22 51 87 70 145 40z m-297 -539 c75 -28 115 -127 79 -197 -62 -119 -227
-73 -246 68 -12 93 79 163 167 129z m23 -694 c119 -61 132 -238 26 -338 -69
-65 -161 -80 -243 -40 -119 58 -134 226 -30 329 70 68 172 88 247 49z m-688
-274 c76 -38 97 -121 49 -184 -55 -72 -182 -69 -231 5 -75 115 55 244 182 179z"/>
<path d="M134 1000 c-38 -15 -91 -88 -108 -150 -20 -71 -23 -241 -6 -325 45
-222 256 -406 546 -476 231 -56 509 -2 638 123 83 81 56 120 -143 209 -190 84
-316 145 -390 189 -154 89 -320 234 -407 355 -53 73 -85 91 -130 75z"/>
<path d="M7333 464 c-65 -32 -96 -122 -67 -193 50 -120 216 -123 273 -5 63
130 -75 262 -206 198z"/>
</g>
</svg>
